# AST/ASF file generated using VICON BodyLanguage
# -----------------------------------------------
:version 1.10
:name VICON
:units
  mass 1.0
  length 0.45
  angle deg
:documentation
   .ast/.asf automatically generated from VICON data using
   VICON BodyBuilder and BodyLanguage model FoxedUp or BRILLIANT.MOD
:root
   order TX TY TZ RX RY RZ
   axis XYZ
   position 0 0 0  
   orientation 0 0 0 
:bonedata
  begin
     id 1 
     name lhipjoint
     direction 0.64773 -0.699417 0.302095 
     length 2.48597 
     axis 0 0 0  XYZ
  end
  begin
     id 2 
     name lfemur
     direction 0.34202 -0.939693 0  
     length 6.71947  
     axis 0 0 20  XYZ
    dof rx ry rz
    limits (-160.0 20.0)
           (-70.0 70.0)
           (-60.0 70.0)
  end
  begin
     id 3 
     name ltibia
     direction 0.34202 -0.939693 0   
     length 8.08777   
     axis 0 0 20   XYZ
    dof rx
    limits (-10.0 170.0)
  end
  begin
     id 4 
     name lfoot
     direction 0.0808503 -0.222134 0.971658   
     length 2.08264   
     axis -90 7.62852e-016 20   XYZ
    dof rx rz
    limits (-45.0 90.0)
           (-70.0 20.0)
  end
  begin
     id 5 
     name ltoes
     direction 1.53502e-011 -4.22007e-011 1   
     length 1.04662   
     axis -90 7.62852e-016 20   XYZ
    dof rx
    limits (-90.0 20.0)
  end
  begin
     id 6 
     name rhipjoint
     direction -0.610924 -0.726792 0.313919   
     length 2.39233  
     axis 0 0 0  XYZ 
  end
  begin
     id 7 
     name rfemur
     direction -0.34202 -0.939693 0   
     length 6.96955   
     axis 0 0 -20   XYZ
    dof rx ry rz
    limits (-160.0 20.0)
           (-70.0 70.0)
           (-70.0 60.0)
  end
  begin
     id 8 
     name rtibia
     direction -0.34202 -0.939693 0   
     length 8.19584   
     axis 0 0 -20   XYZ
    dof rx
    limits (-10.0 170.0)
 end
 begin
     id 9 
     name rfoot
     direction -0.077777 -0.213691 0.9738   
     length 2.07539  
     axis -90 -7.62852e-016 -20   XYZ
    dof rx rz
    limits (-45.0 90.0)
           (-20.0 70.0)
  end
  begin
     id 10 
     name rtoes
     direction -1.53558e-011 -4.22006e-011 1   
     length 1.04381   
     axis -90 -7.62852e-016 -20   XYZ
    dof rx
    limits (-90.0 20.0)
  end
  begin
     id 11 
     name lowerback
     direction -0.00971646 0.996074 0.0879841   
     length 1.67643   
     axis 0 0 0   XYZ
    dof rx ry rz
    limits (-20.0 45.0)
           (-30.0 30.0)
           (-30.0 30.0)
  end
  begin
     id 12 
     name upperback
     direction 0.0127391 0.991676 0.128127   
     length 1.63741   
     axis 0 0 0   XYZ
    dof rx ry rz
    limits (-20.0 45.0)
           (-30.0 30.0)
           (-30.0 30.0)
  end
  begin
     id 13 
     name thorax
     direction 0.0167583 0.996049 0.0872067   
     length 1.65931   
     axis 0 0 0   XYZ
    dof rx ry rz
    limits (-20.0 45.0)
           (-30.0 30.0)
           (-30.0 30.0)
  end
  begin
     id 14 
     name lowerneck
     direction -0.0317829 0.998312 0.0486079   
     length 1.79021   
     axis 0 0 0   XYZ
    dof rx ry rz
    limits (-20.0 45.0)
           (-30.0 30.0)
           (-30.0 30.0)
  end
  begin
     id 15 
     name upperneck
     direction 0.0896851 0.972452 -0.215159   
     length 1.78797   
     axis 0 0 0   XYZ
    dof rx ry rz
    limits (-20.0 45.0)
           (-30.0 30.0)
           (-30.0 30.0)
  end
  begin
     id 16
     name head
     direction 0.0310949 0.996503 -0.0775582  
     length 1.81549  
     axis 0 0 0   XYZ
    dof rx ry rz
    limits (-20.0 45.0)
           (-30.0 30.0)
           (-30.0 30.0)
  end
  begin
     id 17 
     name lclavicle
     direction 0.853638 0.502051 -0.138733  
     length 3.31627  
     axis 0 0 0   XYZ
    dof ry rz
    limits (-20.0 10.0)
           (0.0 20.0)
  end
  begin
     id 18 
     name lhumerus
     direction 1 -4.48962e-011 -1.41788e-018   
     length 5.54893   
     axis 180 -30 -90   XYZ
    dof rx ry rz
    limits (-60.0 90.0)
           (-90.0 90.0)
           (-90.0 90.0)
  end
  begin
     id 19
     name lradius
     direction 1 -4.48962e-011 -4.95754e-027   
     length 3.02898   
     axis 180 -30 -90   XYZ
    dof rx
    limits (-10.0 170.0)
  end
  begin
     id 20
     name lwrist
     direction 1 -4.48952e-011 -1.03764e-026   
     length 1.51449   
     axis 9.09556e-015 90 90   XYZ
    dof ry
    limits (-180.0 0.0)
 end
  begin
     id 21 
     name lhand
     direction 1 -4.4902e-011 -2.07528e-026   
     length 0.640951   
     axis 1.3242e-014 90 90   XYZ
    dof rx rz
    limits (-90.0 90.0)
           (-45.0 45.0)
  end
  begin
     id 22 
     name lfingers
     direction 1 -4.49014e-011 -4.15056e-026   
     length 0.516751   
     axis 2.64841e-014 90 90   XYZ
    dof rx
    limits (0.0 90.0)
  end
  begin
     id 23
     name lthumb
     direction 0.707107 -6.35008e-011 0.707107   
     length 0.741954   
     axis -90 45 2.85299e-015   XYZ
    dof rx rz
    limits (-45.0 45.0)
           (-45.0 45.0)
  end
  begin
     id 24 
     name rclavicle
     direction -0.888531 0.455324 -0.0565039   
     length 3.20126  
     axis 0 0 0   XYZ 
    dof ry rz
    limits (-10.0 20.0)
           (-20.0 0.0)
  end
  begin
     id 25 
     name rhumerus
     direction -1 -4.48946e-011 -8.98298e-028  
     length 5.3519   
     axis 180 30 90   XYZ
    dof rx ry rz
    limits (-90.0 60.0)
           (-90.0 90.0)
           (-90.0 90.0)
  end
  begin
     id 26 
     name rradius
     direction -1 -4.4899e-011 -3.18779e-027   
     length 3.02531   
     axis 180 30 90   XYZ
    dof rx
    limits (-10.0 170.0)
  end
  begin
     id 27 
     name rwrist
     direction -1 -4.4897e-011 -1.03764e-026   
     length 1.51266   
     axis 9.09556e-015 -90 -90   XYZ
    dof ry
    limits (-180.0 0.0)
  end
  begin
     id 28
     name rhand
     direction -1 -4.48941e-011 -2.07528e-026   
     length 0.78389   
     axis 1.3242e-014 -90 -90   XYZ
    dof rx rz
    limits (-90.0 90.0)
           (-45.0 45.0)
  end
  begin
     id 29
     name rfingers
     direction -1 -4.49012e-011 -4.15056e-026   
     length 0.631992   
     axis 2.64841e-014 -90 -90   XYZ
    dof rx
    limits (0.0 90.0)
  end
  begin
     id 30
     name rthumb
     direction -0.707107 -6.3496e-011 0.707107   
     length 0.907418   
     axis -90 -45 -2.85299e-015   XYZ
    dof rx rz
    limits (-45.0 45.0)
           (-45.0 45.0)
  end
:hierarchy
  begin
    root lhipjoint rhipjoint lowerback
    lhipjoint lfemur
    lfemur ltibia
    ltibia lfoot
    lfoot ltoes
    rhipjoint rfemur
    rfemur rtibia
    rtibia rfoot
    rfoot rtoes
    lowerback upperback
    upperback thorax
    thorax lowerneck lclavicle rclavicle
    lowerneck upperneck
    upperneck head
    lclavicle lhumerus
    lhumerus lradius
    lradius lwrist
    lwrist lhand lthumb
    lhand lfingers
    rclavicle rhumerus
    rhumerus rradius
    rradius rwrist
    rwrist rhand rthumb
    rhand rfingers
  end

#!OML:ASF E:\Style3\Style3.ASF
:FULLY-SPECIFIED
:DEGREES
535
root 1.06397 17.7765 0.531888 -168.628 88.639 175.126
lowerback -11.4521 -1.84611 -1.30589
upperback -9.96859 -1.77104 1.35206
thorax -3.95426 -0.531731 1.98744
lowerneck -10.0007 -2.15431 -4.93502
upperneck 17.8224 -3.36257 7.84938
head 7.31808 -1.15673 3.08724
rclavicle 4.87022e-015 6.16232e-015
rhumerus -22.6265 -5.25114 -31.3342
rradius 52.5452
rwrist -3.64438
rhand -12.3722 23.932
rfingers 7.12502
rthumb 13.6983 -5.59716
lclavicle 4.87022e-015 6.16232e-015
lhumerus -61.7703 -25.294 74.6143
lradius 66.8356
lwrist 11.1095
lhand 16.8775 22.5475
lfingers 7.12502
lthumb 41.6159 47.2649
rfemur -12.3853 11.9272 17.7881
rtibia 14.0988
rfoot -16.9821 -24.0459
rtoes -12.6699
lfemur -5.21539 -20.9251 -14.7532
ltibia -3.18055e-015
lfoot -12.7168 24.3872
ltoes -9.97937
536
root 1.06453 17.7762 0.532173 -169.156 88.6095 174.608
lowerback -11.4844 -1.85662 -1.3987
upperback -9.90676 -1.7827 1.34012
thorax -3.8674 -0.536222 2.02447
lowerneck -9.97969 -2.15565 -5.05577
upperneck 17.4799 -3.37793 8.09972
head 7.2103 -1.15831 3.18371
rclavicle -2.7482e-014 -2.18663e-015
rhumerus -22.9896 -4.96229 -31.8364
rradius 51.6121
rwrist -2.52725
rhand -12.9515 24.0988
rfingers 7.12502
rthumb 13.1399 -5.46716
lclavicle -2.7482e-014 -2.18663e-015
lhumerus -62.4071 -24.9983 75.6748
lradius 67.2646
lwrist 11.9505
lhand 18.374 23.1287
lfingers 7.12502
lthumb 43.0175 47.3684
rfemur -12.3463 11.8443 17.7924
rtibia 14.0544
rfoot -16.8702 -24.0749
rtoes -13.0713
lfemur -5.19274 -20.9645 -14.8105
ltibia 3.18055e-014
lfoot -12.0536 24.644
ltoes -12.2876
537
root 1.06809 17.774 0.533471 -167.649 88.5598 176.207
lowerback -11.4372 -1.83787 -1.42582
upperback -9.84943 -1.76242 1.31444
thorax -3.8321 -0.528582 2.0148
lowerneck -9.9784 -2.19827 -5.16491
upperneck 17.2169 -3.45362 8.35394
head 7.13652 -1.18531 3.27492
rclavicle 1.93815e-015 1.05356e-014
rhumerus -23.5733 -4.49988 -32.2745
rradius 50.7368
rwrist -1.44318
rhand -13.6029 24.2477
rfingers 7.12502
rthumb 12.512 -5.35766
lclavicle 1.93815e-015 1.05356e-014
lhumerus -63.069 -24.7355 76.7061
lradius 67.7044
lwrist 12.6227
lhand 19.6212 23.7114
lfingers 7.12502
lthumb 44.1821 47.526
rfemur -12.1937 11.7992 17.8875
rtibia 14.0043
rfoot -16.8378 -24.1519
rtoes -13.2666
lfemur -5.07449 -21.0197 -14.8402
ltibia -1.59028e-014
lfoot -11.3915 24.9311
ltoes -14.64
538
root 1.07082 17.7738 0.53687 -166.676 88.5407 177.184
lowerback -11.3958 -1.8147 -1.51748
upperback -9.84241 -1.72665 1.29364
thorax -3.84668 -0.506494 2.04819
lowerneck -10.0403 -2.24138 -5.19043
upperneck 16.9997 -3.52453 8.49804
head 7.08575 -1.21238 3.31645
rclavicle -1.63003e-014 -2.08724e-014
rhumerus -24.3058 -3.96247 -32.6808
rradius 49.9483
rwrist -0.296568
rhand -14.061 24.3242
rfingers 7.12502
rthumb 12.0702 -5.3077
lclavicle -1.63003e-014 -2.08724e-014
lhumerus -63.6843 -24.4492 77.6422
lradius 68.1741
lwrist 13.0796
lhand 20.8908 24.2054
lfingers 7.12502
lthumb 45.364 47.5601
rfemur -12.1419 11.8544 17.9274
rtibia 13.9419
rfoot -16.9172 -24.1868
rtoes -12.7382
lfemur -5.07332 -21.0309 -14.7995
ltibia 1.43125e-014
lfoot -11.3875 24.9371
ltoes -14.7062
539
root 1.07107 17.7747 0.539108 -166.735 88.5131 177.05
lowerback -11.4359 -1.79875 -1.67719
upperback -9.83681 -1.69205 1.28505
thorax -3.81674 -0.48048 2.13062
lowerneck -10.0643 -2.30119 -5.19231
upperneck 16.719 -3.60877 8.57607
head 7.00752 -1.25263 3.33008
rclavicle 2.26118e-015 -1.2921e-014
rhumerus -25.113 -3.40466 -33.0169
rradius 49.195
rwrist 0.97312
rhand -14.2358 24.382
rfingers 7.12502
rthumb 11.9017 -5.25969
lclavicle 2.26118e-015 -1.2921e-014
lhumerus -64.2096 -24.114 78.4846
lradius 68.7265
lwrist 13.2774
lhand 22.3384 24.6966
lfingers 7.12502
lthumb 46.7069 47.4908
rfemur -12.188 11.7971 17.9194
rtibia 13.8788
rfoot -16.9337 -24.1419
rtoes -12.3765
lfemur -5.16725 -21.0504 -14.7559
ltibia 4.77083e-015
lfoot -11.4104 24.9159
ltoes -14.4106
540
root 1.07022 17.7764 0.54226 -165.448 88.4241 178.261
lowerback -11.4506 -1.76498 -1.7989
upperback -9.8471 -1.63583 1.25956
thorax -3.82032 -0.445093 2.17664
lowerneck -10.0015 -2.40385 -5.20994
upperneck 16.377 -3.75454 8.69645
head 6.9002 -1.32265 3.35425
rclavicle 1.58531e-014 -7.95139e-015
rhumerus -25.9927 -2.93444 -33.3749
rradius 48.3855
rwrist 2.37852
rhand -14.2526 24.4673
rfingers 7.12502
rthumb 11.8855 -5.17532
lclavicle 1.58531e-014 -7.95139e-015
lhumerus -64.7344 -23.838 79.295
lradius 69.2623
lwrist 13.4992
lhand 23.3869 25.0681
lfingers 7.12502
lthumb 47.6761 47.4307
rfemur -12.2383 11.7143 17.97
rtibia 13.8224
rfoot -16.9279 -24.1379
rtoes -12.2582
lfemur -5.29145 -21.1197 -14.6502
ltibia -6.36111e-015
lfoot -11.2725 24.9396
ltoes -14.5747
541
root 1.06898 17.7772 0.545394 -163.9 88.3114 179.755
lowerback -11.4166 -1.6773 -1.8479
upperback -9.85076 -1.51693 1.16072
thorax -3.84999 -0.384921 2.11118
lowerneck -10.0228 -2.54454 -5.1273
upperneck 16.0913 -3.96748 8.81187
head 6.82971 -1.41597 3.3543
rclavicle 6.55989e-015 5.36719e-015
rhumerus -26.8923 -2.74089 -33.8585
rradius 47.3833
rwrist 3.88194
rhand -14.1381 24.4826
rfingers 7.12502
rthumb 11.996 -5.15368
lclavicle 6.55989e-015 5.36719e-015
lhumerus -65.1846 -23.7821 80.1044
lradius 69.7217
lwrist 14.037
lhand 23.8864 25.4304
lfingers 7.12502
lthumb 48.1368 47.5791
rfemur -12.2569 11.669 18.0451
rtibia 13.7607
rfoot -16.9997 -24.2011
rtoes -12.1626
lfemur -5.3889 -21.2086 -14.53
ltibia -4.92986e-014
lfoot -11.2286 24.9497
ltoes -14.6487
542
root 1.06768 17.7782 0.548464 -163.603 88.1896 179.976
lowerback -11.3274 -1.59269 -1.90661
upperback -9.90739 -1.39929 1.04714
thorax -3.96646 -0.322202 2.03692
lowerneck -9.9978 -2.67298 -5.07136
upperneck 15.8398 -4.16722 8.97124
head 6.76259 -1.50095 3.37546
rclavicle -8.67198e-015 -7.15625e-015
rhumerus -27.6448 -2.79618 -34.4166
rradius 46.0795
rwrist 5.6514
rhand -13.9794 24.5742
rfingers 7.12502
rthumb 12.149 -5.05299
lclavicle -8.67198e-015 -7.15625e-015
lhumerus -65.6587 -23.7662 80.8837
lradius 70.1665
lwrist 14.6388
lhand 24.3611 26.0269
lfingers 7.12502
lthumb 48.5739 47.9674
rfemur -12.2824 11.6108 18.0756
rtibia 13.6763
rfoot -17.0361 -24.2275
rtoes -12.0836
lfemur -5.51073 -21.3138 -14.4361
ltibia 9.54166e-015
lfoot -11.1807 24.9532
ltoes -14.692
543
root 1.06729 17.7791 0.553104 -163.342 88.0571 180.222
lowerback -11.1663 -1.55536 -2.00387
upperback -9.95574 -1.34473 0.986642
thorax -4.1081 -0.287979 2.03554
lowerneck -9.95944 -2.75748 -5.04116
upperneck 15.5751 -4.29474 9.09023
head 6.6833 -1.55763 3.39438
rclavicle -5.51627e-015 5.56597e-015
rhumerus -28.292 -2.80965 -35.086
rradius 44.7008
rwrist 7.32282
rhand -14.2074 24.4966
rfingers 7.12502
rthumb 11.9291 -5.14356
lclavicle -5.51627e-015 5.56597e-015
lhumerus -66.085 -23.5039 81.4965
lradius 70.5974
lwrist 14.93
lhand 24.7921 26.5708
lfingers 7.12502
lthumb 48.9702 48.3179
rfemur -12.2391 11.5793 18.1327
rtibia 13.6008
rfoot -16.9827 -24.3359
rtoes -12.3634
lfemur -5.57437 -21.4345 -14.359
ltibia -1.59028e-014
lfoot -11.126 25.003
ltoes -14.7868
544
root 1.06601 17.7789 0.557706 -162.558 87.9122 181.002
lowerback -11.1014 -1.54854 -2.17937
upperback -9.93759 -1.32501 1.02192
thorax -4.121 -0.267349 2.17322
lowerneck -9.92349 -2.83874 -5.20463
upperneck 15.2549 -4.39861 9.30547
head 6.59139 -1.60866 3.47884
rclavicle 4.84538e-016 -6.55989e-015
rhumerus -28.8444 -2.67746 -35.7596
rradius 43.309
rwrist 8.66187
rhand -14.7464 24.2535
rfingers 7.12502
rthumb 11.4093 -5.41606
lclavicle 4.84538e-016 -6.55989e-015
lhumerus -66.3777 -23.0784 82.0977
lradius 71.0043
lwrist 15.1253
lhand 24.9389 26.7415
lfingers 7.12502
lthumb 49.1051 48.4217
rfemur -12.1861 11.5983 18.2109
rtibia 13.5216
rfoot -17.0386 -24.4644
rtoes -12.276
lfemur -5.63212 -21.5525 -14.2078
ltibia 1.43125e-014
lfoot -11.7477 24.7572
ltoes -12.6593
545
root 1.06297 17.7792 0.56143 -162.776 87.7542 180.771
lowerback -11.0569 -1.524 -2.41983
upperback -9.9148 -1.27626 1.06128
thorax -4.11863 -0.228331 2.35347
lowerneck -9.92677 -2.95272 -5.41007
upperneck 14.9877 -4.53817 9.49663
head 6.52708 -1.67928 3.5596
rclavicle 4.46023e-015 -7.95139e-016
rhumerus -29.4013 -2.75188 -36.3113
rradius 41.7821
rwrist 10.4523
rhand -14.79 24.4881
rfingers 7.12502
rthumb 11.3673 -5.18378
lclavicle 4.46023e-015 -7.95139e-016
lhumerus -66.7022 -22.7535 82.7371
lradius 71.5758
lwrist 15.3832
lhand 25.0277 26.9637
lfingers 7.12502
lthumb 49.1866 48.6033
rfemur -12.1441 11.5877 18.2492
rtibia 13.4283
rfoot -17.0172 -24.6181
rtoes -12.3054
lfemur -5.71424 -21.6933 -14.0844
ltibia -1.74931e-014
lfoot -12.2981 24.5135
ltoes -10.6939
546
root 1.06099 17.7807 0.565045 -162.684 87.5811 180.823
lowerback -11.0788 -1.45501 -2.56846
upperback -9.88575 -1.174 1.01881
thorax -4.0802 -0.170717 2.39962
lowerneck -9.91327 -3.08924 -5.42577
upperneck 14.7175 -4.71739 9.55461
head 6.45555 -1.76911 3.56156
rclavicle -1.04113e-014 3.13086e-015
rhumerus -30.0864 -2.94881 -36.8769
rradius 40.2318
rwrist 12.6178
rhand -14.5713 24.9021
rfingers 7.12502
rthumb 11.5782 -4.75802
lclavicle -1.04113e-014 3.13086e-015
lhumerus -66.9906 -22.5846 83.2586
lradius 72.1908
lwrist 15.5352
lhand 25.2357 27.2416
lfingers 7.12502
lthumb 49.3775 48.7852
rfemur -12.1234 11.5546 18.2942
rtibia 13.3437
rfoot -17.0261 -24.7329
rtoes -12.019
lfemur -5.80675 -21.8588 -14.0331
ltibia 1.90833e-014
lfoot -11.7037 24.7929
ltoes -12.681
